# xmcd
#
# Track frame offsets:
#	150
#	15937
#	31487
#	49095
#	64945
#	82667
#	98362
#	117552
#	134597
#	150817
#	169285
#	184897
#
# Disc length: 2683 seconds
#
# Revision: 1
# Processed by: cddbd v1.5.1PL0 Copyright (c) Steve Scherf et al.
# Submitted via: CDex 1.50Beta5
#
DISCID=8d0a790c
DTITLE=石原裕次郎 - 石原裕次郎・八代亜紀ゴールデン・デュエット集
DYEAR=1988
DGENRE=Pop
TTITLE0=別れの夜明け
TTITLE1=夜のめぐり逢い
TTITLE2=東京ナイトクラブ
TTITLE3=恋いのち
TTITLE4=恋路
TTITLE5=赤坂で別れて
TTITLE6=銀座の恋の物語
TTITLE7=夕陽の丘
TTITLE8=赤いグラス
TTITLE9=わかれ川
TTITLE10=なみだの宿
TTITLE11=ふたりの港町
EXTD=
EXTT0=
EXTT1=
EXTT2=
EXTT3=
EXTT4=
EXTT5=
EXTT6=
EXTT7=
EXTT8=
EXTT9=
EXTT10=
EXTT11=
PLAYORDER=
